# xmcd CD database file
#
# Track frame offsets:
#	150
#	8905
#	26298
#	38042
#	52419
#	68875
#	87658
#	99346
#	111873
#	121328
#	143667
#	160298
#
# Disc length: 2366 seconds
#
# Revision: 0
# Processed by: cddbd v1.5.2PL0 Copyright (c) Steve Scherf et al.
# Submitted via: CDex 1.70beta2
#
DISCID=9e093c0c
DTITLE=Skerkowski, Katie - OVM - ON - Katie Skerkowski
DYEAR=1900
DGENRE=Country
TTITLE0=Edelwiss
TTITLE1=Oh Danny Boy
TTITLE2=End of the World
TTITLE3=Dream a Little Dream
TTITLE4=Born To Fly
TTITLE5=When You Say Nothing At All
TTITLE6=Will You Still Love Me Tomorrow
TTITLE7=Stand By Your Mna
TTITLE8=Walikn' After Miodight
TTITLE9=Wind Beneath My Wings
TTITLE10=I Enjoy Being a Girl
TTITLE11=I Could Not Ask For More
EXTD=
EXTT0=
EXTT1=
EXTT2=
EXTT3=
EXTT4=
EXTT5=
EXTT6=
EXTT7=
EXTT8=
EXTT9=
EXTT10=
EXTT11=
PLAYORDER=
